<svg version="1.1" xmlns="http://www.w3.org/2000/svg" viewBox="0 0 1847.4461255993945 926.2969302874371" width="1847.4461255993945" height="926.2969302874371">
  <!-- svg-source:excalidraw -->
  
  <defs>
    <style class="style-fonts">
      @font-face {
        font-family: "Virgil";
        src: url("https://excalidraw.com/Virgil.woff2");
      }
      @font-face {
        font-family: "Cascadia";
        src: url("https://excalidraw.com/Cascadia.woff2");
      }
      @font-face {
        font-family: "Assistant";
        src: url("https://excalidraw.com/Assistant-Regular.woff2");
      }
    </style>
    
  </defs>
  <rect x="0" y="0" width="1847.4461255993945" height="926.2969302874371" fill="#ffffff"></rect><g stroke-linecap="round"><g transform="translate(472.33057855898426 354.98034503542965) rotate(0 196.3546005814184 -145.57114997007267)"><path d="M-0.83 0.35 C13.47 -14.6, 52.68 -59.38, 85.66 -89.26 C118.64 -119.13, 164.76 -148.05, 197.06 -178.9 C229.36 -209.74, 246.9 -255.52, 279.47 -274.33 C312.04 -293.15, 373.69 -288.95, 392.5 -291.78 M0.94 -0.51 C15.64 -15.32, 54.89 -58.25, 87.99 -87.85 C121.09 -117.44, 167.54 -146.65, 199.54 -178.09 C231.54 -209.53, 248.12 -257.56, 280.02 -276.5 C311.91 -295.44, 371.99 -289.07, 390.92 -291.73" stroke="#1e1e1e" stroke-width="2" fill="none"></path></g><g transform="translate(472.33057855898426 354.98034503542965) rotate(0 196.3546005814184 -145.57114997007267)"><path d="M389.81 -291.33 L376.51 -284.26 L378.73 -298.31 L389.15 -293.61" stroke="none" stroke-width="0" fill="#1e1e1e" fill-rule="evenodd"></path><path d="M390.92 -291.73 C387.53 -290.77, 382.93 -288.9, 377.54 -284.93 M390.92 -291.73 C387.88 -290.55, 384.86 -288.77, 377.54 -284.93 M377.54 -284.93 C377.25 -288.76, 377.5 -290.43, 377.12 -297.61 M377.54 -284.93 C377.05 -289.14, 377.01 -293.59, 377.12 -297.61 M377.12 -297.61 C380.52 -295.33, 385.4 -295.54, 390.92 -291.73 M377.12 -297.61 C380.44 -296.81, 384.55 -294.25, 390.92 -291.73 M390.92 -291.73 C390.92 -291.73, 390.92 -291.73, 390.92 -291.73 M390.92 -291.73 C390.92 -291.73, 390.92 -291.73, 390.92 -291.73" stroke="#1e1e1e" stroke-width="2" fill="none"></path></g></g><mask></mask><g stroke-linecap="round" transform="translate(10 298.4269956046016) rotate(0 86.42857142857139 90)"><path d="M0 0 C50.93 0.08, 104.64 -1.78, 172.86 0 M0 0 C65.05 -1.85, 129.48 -1.3, 172.86 0 M172.86 0 C174.58 54.24, 173.98 109.06, 172.86 180 M172.86 0 C173.22 59.67, 173.08 120.87, 172.86 180 M172.86 180 C132.58 177.27, 92.36 179, 0 180 M172.86 180 C118.81 180.95, 65.29 179.61, 0 180 M0 180 C1.9 129.83, -0.56 75.7, 0 0 M0 180 C-1.26 142.09, -1.02 102.33, 0 0" stroke="#1e1e1e" stroke-width="2" fill="none"></path></g><g transform="translate(50.67857142857139 367.7269956046016) rotate(0 45.75 20.69999999999999)"><text x="45.75" y="0" font-family="Helvetica, Segoe UI Emoji" font-size="36px" fill="#1e1e1e" text-anchor="middle" style="white-space: pre;" direction="ltr" dominant-baseline="text-before-edge">fejléc</text></g><g stroke-linecap="round"><g transform="translate(611.7414148884851 350.53184023346114) rotate(0 276.37476361730387 22.376018129310282)"><path d="M0.91 0.3 C29.78 -16.88, 103.93 -95.69, 172.47 -103.98 C241 -112.28, 348.86 -91.22, 412.15 -49.46 C475.44 -7.69, 528.61 113.93, 552.19 146.62 M-0.06 -0.58 C28.67 -17.58, 102.79 -94.54, 171.32 -103.03 C239.84 -111.51, 347.59 -93.2, 411.06 -51.5 C474.53 -9.8, 528.55 114.18, 552.14 147.19" stroke="#1e1e1e" stroke-width="2" fill="none"></path></g><g transform="translate(611.7414148884851 350.53184023346114) rotate(0 276.37476361730387 22.376018129310282)"><path d="M551.42 148.64 L540.44 139.82 L549.83 130.83 L551.41 146.52" stroke="none" stroke-width="0" fill="#1e1e1e" fill-rule="evenodd"></path><path d="M552.14 147.19 C549.61 144.74, 544.87 142.39, 539.82 138.63 M552.14 147.19 C548.44 143.52, 542.94 140.79, 539.82 138.63 M539.82 138.63 C541.9 136.81, 545.27 134.18, 550.78 132.25 M539.82 138.63 C543.16 136.7, 546.02 134.78, 550.78 132.25 M550.78 132.25 C550.88 138.73, 551.48 142.48, 552.14 147.19 M550.78 132.25 C551.04 136.11, 552.23 141.18, 552.14 147.19 M552.14 147.19 C552.14 147.19, 552.14 147.19, 552.14 147.19 M552.14 147.19 C552.14 147.19, 552.14 147.19, 552.14 147.19" stroke="#1e1e1e" stroke-width="2" fill="none"></path></g></g><mask></mask><g stroke-linecap="round"><g transform="translate(761.1729244810556 414.1267449192301) rotate(0 -62.671733942272226 160.58509268410353)"><path d="M-1.08 -0.99 C-3.86 30.45, 4.89 134.15, -15.79 187.77 C-36.47 241.39, -106.96 298.37, -125.15 320.72 M0.55 1.11 C-1.96 32.31, 7.38 132.79, -13.69 186.24 C-34.75 239.69, -107.36 299.56, -125.82 321.81" stroke="#1e1e1e" stroke-width="2" fill="none"></path></g><g transform="translate(761.1729244810556 414.1267449192301) rotate(0 -62.671733942272226 160.58509268410353)"><path d="M-124.09 321.48 L-121.02 305.9 L-112.01 317.62 L-127.3 320.17" stroke="none" stroke-width="0" fill="#1e1e1e" fill-rule="evenodd"></path><path d="M-125.82 321.81 C-125.08 315.07, -120.57 311.44, -120.84 307.66 M-125.82 321.81 C-125.15 318.8, -123.67 313.85, -120.84 307.66 M-120.84 307.66 C-117.29 311.76, -115.71 314.8, -111.78 316.53 M-120.84 307.66 C-118.58 309.95, -116.43 312.27, -111.78 316.53 M-111.78 316.53 C-117.51 318.69, -121.36 321.35, -125.82 321.81 M-111.78 316.53 C-115.54 317.21, -118.76 319.6, -125.82 321.81 M-125.82 321.81 C-125.82 321.81, -125.82 321.81, -125.82 321.81 M-125.82 321.81 C-125.82 321.81, -125.82 321.81, -125.82 321.81" stroke="#1e1e1e" stroke-width="2" fill="none"></path></g></g><mask></mask><g stroke-linecap="round"><g transform="translate(879.0636972753416 149.07161927058817) rotate(0 -401.13509997940747 72.94216764092064)"><path d="M0 0.62 C-100.94 3.78, -471.31 -4.26, -604.86 20.06 C-738.41 44.38, -768.33 125.62, -801.28 146.56 M-1.45 -0.09 C-102.1 3.75, -469.31 -2.7, -602.65 21.41 C-736 45.52, -768.23 123.69, -801.52 144.57" stroke="#1e1e1e" stroke-width="2" fill="none"></path></g><g transform="translate(879.0636972753416 149.07161927058817) rotate(0 -401.13509997940747 72.94216764092064)"><path d="M-788.34 117.62 C-791.9 125.94, -798.39 139.11, -801.52 144.57 M-788.34 117.62 C-792.25 127.55, -797.56 137.23, -801.52 144.57" stroke="#1e1e1e" stroke-width="2" fill="none"></path></g><g transform="translate(879.0636972753416 149.07161927058817) rotate(0 -401.13509997940747 72.94216764092064)"><path d="M-774.1 132.4 C-783.04 135.28, -794.77 143.02, -801.52 144.57 M-774.1 132.4 C-783.05 137.04, -793.43 141.46, -801.52 144.57" stroke="#1e1e1e" stroke-width="2" fill="none"></path></g></g><mask></mask><g stroke-linecap="round"><g transform="translate(1116.7953309318602 642.2980656927656) rotate(0 -497.0368536776787 -78.56728055900436)"><path d="M-0.88 0.99 C-42.61 -14.13, -121.17 -78.79, -251.41 -91.87 C-381.64 -104.95, -658.67 -66.51, -782.28 -77.51 C-905.89 -88.51, -957.56 -144.62, -993.06 -157.88 M0.85 0.46 C-40.88 -14.92, -121.4 -80.88, -252.05 -93.72 C-382.7 -106.56, -659.65 -66.02, -783.02 -76.6 C-906.39 -87.17, -957.17 -143.83, -992.28 -157.16" stroke="#1e1e1e" stroke-width="2" fill="none"></path></g><g transform="translate(1116.7953309318602 642.2980656927656) rotate(0 -497.0368536776787 -78.56728055900436)"><path d="M-962.7 -152.13 C-967.24 -152.44, -974.25 -154.38, -992.28 -157.16 M-962.7 -152.13 C-970.69 -153.39, -977.24 -154.38, -992.28 -157.16" stroke="#1e1e1e" stroke-width="2" fill="none"></path></g><g transform="translate(1116.7953309318602 642.2980656927656) rotate(0 -497.0368536776787 -78.56728055900436)"><path d="M-972.86 -134.29 C-975.08 -138.28, -979.95 -143.99, -992.28 -157.16 M-972.86 -134.29 C-978.61 -139.68, -982.77 -144.86, -992.28 -157.16" stroke="#1e1e1e" stroke-width="2" fill="none"></path></g></g><mask></mask><g stroke-linecap="round"><g transform="translate(490.8970156025888 877.6079643947204) rotate(0 -217.88882127297433 -198.4599657925973)"><path d="M1.11 -0.92 C-24.24 -27.16, -80.07 -92.23, -153.01 -158.36 C-225.96 -224.49, -389.32 -357.81, -436.56 -397.7 M0.24 1.21 C-25.18 -24.81, -81.54 -90.87, -153.93 -157.21 C-226.31 -223.54, -386.97 -356.83, -434.07 -396.79" stroke="#1e1e1e" stroke-width="2" fill="none"></path></g><g transform="translate(490.8970156025888 877.6079643947204) rotate(0 -217.88882127297433 -198.4599657925973)"><path d="M-405.89 -386.5 C-413.62 -388.43, -419.57 -392.12, -434.07 -396.79 M-405.89 -386.5 C-412.15 -389.24, -418.41 -392.42, -434.07 -396.79" stroke="#1e1e1e" stroke-width="2" fill="none"></path></g><g transform="translate(490.8970156025888 877.6079643947204) rotate(0 -217.88882127297433 -198.4599657925973)"><path d="M-419.1 -370.8 C-423.77 -376.34, -426.78 -383.53, -434.07 -396.79 M-419.1 -370.8 C-422.16 -377.13, -425.32 -384, -434.07 -396.79" stroke="#1e1e1e" stroke-width="2" fill="none"></path></g></g><mask></mask><g stroke-linecap="round" transform="translate(1260.3704882681468 -177.47924944433697) rotate(89.99999999999994 66.01320853716072 279.15755135629865)"><path d="M0 0 C25.94 2.32, 55.07 0.79, 132.03 0 M0 0 C42.02 0.57, 83.68 -0.11, 132.03 0 M132.03 0 C129.53 165.36, 129.47 330.45, 132.03 558.32 M132.03 0 C133.29 124.83, 133.8 249.69, 132.03 558.32 M132.03 558.32 C84.69 559.07, 38.16 557.91, 0 558.32 M132.03 558.32 C93.65 557.34, 55.33 556.92, 0 558.32 M0 558.32 C-2.25 365.11, -2.08 172.38, 0 0 M0 558.32 C-0.32 419.54, -0.67 280.09, 0 0" stroke="#e03131" stroke-width="2" fill="none"></path></g><g stroke-linecap="round" transform="translate(869.6098368038513 10) rotate(0 86.42857142857139 90)"><path d="M0 0 C38.63 -3.28, 75.48 -3.53, 172.86 0 M0 0 C54 -0.63, 107.95 -0.89, 172.86 0 M172.86 0 C171.47 40.57, 173.95 83.3, 172.86 180 M172.86 0 C174.24 44.64, 174.54 87.86, 172.86 180 M172.86 180 C130.23 181.43, 91.22 182.52, 0 180 M172.86 180 C133.96 180.02, 94.38 180.28, 0 180 M0 180 C-0.64 113.44, -0.29 47.51, 0 0 M0 180 C-1.88 127, -0.23 75.57, 0 0" stroke="#e03131" stroke-width="2" fill="none"></path></g><g transform="translate(910.2884082324226 79.30000000000001) rotate(0 45.75 20.700000000000003)"><text x="45.75" y="0" font-family="Helvetica, Segoe UI Emoji" font-size="36px" fill="#e03131" text-anchor="middle" style="white-space: pre;" direction="ltr" dominant-baseline="text-before-edge">fejléc</text></g><g stroke-linecap="round"><g transform="translate(1188.664692176593 36.16457409849977) rotate(0 0 68.81037839043032)"><path d="M-0.64 -0.27 C-0.81 22.62, 0.04 113.82, 0.13 136.67 M1.22 -1.46 C0.81 21.61, -0.4 114.51, -0.76 137.7" stroke="#e03131" stroke-width="2" fill="none"></path></g></g><mask></mask><g stroke-linecap="round"><g transform="translate(1329.642052781377 32.80797027457635) rotate(0 0 69.36981236108423)"><path d="M-0.16 1.18 C-0.13 24.04, -0.02 115.14, 0.04 138.12 M-1.71 0.75 C-1.82 23.68, -1.1 116.03, -0.89 139.33" stroke="#e03131" stroke-width="2" fill="none"></path></g></g><mask></mask><g stroke-linecap="round"><g transform="translate(1460.549601914391 36.16457409849977) rotate(0 0 67.1320764784686)"><path d="M-0.09 -0.17 C-0.14 22.25, -1.11 112.22, -0.92 134.79 M-1.6 -1.31 C-1.22 20.73, 0.91 110.49, 1.31 132.94" stroke="#e03131" stroke-width="2" fill="none"></path></g></g><mask></mask><g stroke-linecap="round" transform="translate(882.6543102289074 132.94665102162568) rotate(0 20.699056914194443 20.699056914194443)"><path d="M21.35 0.1 C25.68 -0.01, 31.79 1.99, 35.04 5.01 C38.29 8.03, 40.36 13.7, 40.85 18.2 C41.35 22.7, 40.28 28.35, 38.02 32 C35.76 35.66, 31.45 38.9, 27.28 40.14 C23.12 41.39, 17.14 41.06, 13.01 39.46 C8.88 37.86, 4.55 34.4, 2.5 30.53 C0.44 26.66, -0.17 20.6, 0.68 16.25 C1.52 11.91, 4.01 7.24, 7.59 4.48 C11.17 1.72, 19.72 0.43, 22.18 -0.31 C24.64 -1.04, 22.39 -0.36, 22.37 0.06 M23.77 0.33 C27.98 0.78, 33.51 3.79, 36.44 7.15 C39.38 10.51, 41.44 16.11, 41.4 20.5 C41.35 24.89, 38.94 30.15, 36.19 33.48 C33.45 36.81, 29.16 39.67, 24.92 40.48 C20.67 41.29, 14.58 40.49, 10.74 38.33 C6.89 36.18, 3.56 31.51, 1.86 27.55 C0.16 23.59, -0.75 18.65, 0.54 14.57 C1.83 10.49, 5.62 5.57, 9.6 3.07 C13.58 0.57, 22.11 -0.13, 24.44 -0.43 C26.77 -0.73, 23.76 0.94, 23.56 1.28" stroke="none" stroke-width="0" fill="#1e1e1e"></path><path d="M25.13 0.31 C29.41 0.79, 34.54 4.02, 37.24 7.58 C39.94 11.14, 41.58 17.11, 41.31 21.66 C41.05 26.21, 38.67 31.56, 35.65 34.89 C32.64 38.23, 27.63 41.15, 23.23 41.66 C18.83 42.17, 12.92 40.47, 9.26 37.95 C5.6 35.44, 2.51 30.71, 1.27 26.57 C0.04 22.43, 0.14 17.15, 1.85 13.11 C3.55 9.07, 7.33 4.35, 11.5 2.33 C15.68 0.3, 24.19 1.15, 26.87 0.97 C29.56 0.79, 27.88 0.93, 27.64 1.23 M16.56 0.36 C20.62 -0.88, 26.89 -0.37, 30.74 1.56 C34.59 3.5, 38.12 7.72, 39.68 11.97 C41.23 16.23, 41.42 22.8, 40.08 27.11 C38.74 31.42, 35.27 35.58, 31.62 37.83 C27.98 40.09, 22.54 41.06, 18.2 40.63 C13.86 40.21, 8.7 38.36, 5.59 35.27 C2.48 32.18, -0.21 26.67, -0.48 22.1 C-0.74 17.53, 1.14 11.39, 4.01 7.86 C6.88 4.34, 14.8 2.14, 16.73 0.96 C18.65 -0.22, 15.61 0.45, 15.54 0.8" stroke="#1e1e1e" stroke-width="2" fill="none"></path></g><g stroke-linecap="round"><g transform="translate(1189.7835601179013 35.49684049778074) rotate(0 64.3349066251991 64.33490662519901)"><path d="M-1.13 0.18 C20.54 21.82, 107.46 108.37, 128.93 129.77 M0.47 -0.77 C22.1 20.56, 106.52 106.45, 128.12 128.23" stroke="#e03131" stroke-width="2" fill="none"></path></g></g><mask></mask><g stroke-linecap="round"><g transform="translate(1325.1665810161462 36.16457409849997) rotate(0 -66.57264250781463 66.57264250781466)"><path d="M-0.57 1.07 C-23.03 22.98, -112.1 110.39, -134.25 132.54 M1.34 0.59 C-20.82 23.16, -109.49 111.84, -132.11 133.76" stroke="#e03131" stroke-width="2" fill="none"></path></g></g><mask></mask><g transform="translate(1078.2193176166847 80.74141957087238) rotate(0 37.650001525878906 41.4)"><text x="37.650001525878906" y="0" font-family="Helvetica, Segoe UI Emoji" font-size="36px" fill="#e03131" text-anchor="middle" style="white-space: pre;" direction="ltr" dominant-baseline="text-before-edge">adat</text><text x="37.650001525878906" y="41.4" font-family="Helvetica, Segoe UI Emoji" font-size="36px" fill="#e03131" text-anchor="middle" style="white-space: pre;" direction="ltr" dominant-baseline="text-before-edge">1</text></g><g transform="translate(1358.8373353818138 79.30000000000001) rotate(0 37.650001525878906 41.4)"><text x="37.650001525878906" y="0" font-family="Helvetica, Segoe UI Emoji" font-size="36px" fill="#e03131" text-anchor="middle" style="white-space: pre;" direction="ltr" dominant-baseline="text-before-edge">adat</text><text x="37.650001525878906" y="41.4" font-family="Helvetica, Segoe UI Emoji" font-size="36px" fill="#e03131" text-anchor="middle" style="white-space: pre;" direction="ltr" dominant-baseline="text-before-edge">2</text></g><g transform="translate(1495.62601657352 79.30000000000001) rotate(0 37.650001525878906 41.4)"><text x="37.650001525878906" y="0" font-family="Helvetica, Segoe UI Emoji" font-size="36px" fill="#e03131" text-anchor="middle" style="white-space: pre;" direction="ltr" dominant-baseline="text-before-edge">adat</text><text x="37.650001525878906" y="41.4" font-family="Helvetica, Segoe UI Emoji" font-size="36px" fill="#e03131" text-anchor="middle" style="white-space: pre;" direction="ltr" dominant-baseline="text-before-edge">3</text></g><g stroke-linecap="round" transform="translate(1492.275365705935 315.9919781892089) rotate(89.99999999999994 66.01320853716084 279.15755135629865)"><path d="M0 0 C46.84 0.16, 94.57 -0.26, 132.03 0 M0 0 C35.1 0.74, 71.49 0.47, 132.03 0 M132.03 0 C130.94 156.77, 130.93 312.56, 132.03 558.32 M132.03 0 C130.83 163.22, 130.96 325.72, 132.03 558.32 M132.03 558.32 C89.77 558.32, 47.63 559.42, 0 558.32 M132.03 558.32 C92.58 556.19, 53.02 556.47, 0 558.32 M0 558.32 C-1.16 370.3, -1.43 181.2, 0 0 M0 558.32 C-0.37 337.44, -0.6 117.21, 0 0" stroke="#e03131" stroke-width="2" fill="none"></path></g><g stroke-linecap="round" transform="translate(1101.5147142416392 503.47122763354594) rotate(0 86.42857142857139 90)"><path d="M0 0 C46.3 -0.47, 89.38 -0.86, 172.86 0 M0 0 C54.3 -0.96, 109.29 -2.48, 172.86 0 M172.86 0 C176.49 67.32, 174.42 134.3, 172.86 180 M172.86 0 C172.75 55.35, 172.74 112.2, 172.86 180 M172.86 180 C131.81 182.75, 92.32 181.97, 0 180 M172.86 180 C136.92 177.62, 99.69 178.98, 0 180 M0 180 C-0.58 131.86, 1.13 84.95, 0 0 M0 180 C-0.86 133.73, -0.01 85.09, 0 0" stroke="#e03131" stroke-width="2" fill="none"></path></g><g transform="translate(1142.1932856702106 572.771227633546) rotate(0 45.75 20.69999999999999)"><text x="45.75" y="0" font-family="Helvetica, Segoe UI Emoji" font-size="36px" fill="#e03131" text-anchor="middle" style="white-space: pre;" direction="ltr" dominant-baseline="text-before-edge">fejléc</text></g><g stroke-linecap="round"><g transform="translate(1420.569569614381 529.6358017320457) rotate(0 0 68.81037839043029)"><path d="M-0.7 0.2 C-0.8 23.38, -1.07 115.73, -1.04 138.77 M1.13 -0.74 C1.43 22.17, 1.58 114.37, 1.12 137.25" stroke="#e03131" stroke-width="2" fill="none"></path></g></g><mask></mask><g stroke-linecap="round"><g transform="translate(1561.5469302191652 526.2791979081223) rotate(0 0 69.36981236108423)"><path d="M-1.04 1.15 C-1.01 24.38, -0.67 116.8, -0.53 139.57 M0.61 0.7 C0.5 23.58, -1.47 114.91, -1.76 137.88" stroke="#e03131" stroke-width="2" fill="none"></path></g></g><mask></mask><g stroke-linecap="round"><g transform="translate(1692.4544793521789 529.6358017320457) rotate(0 0 67.1320764784686)"><path d="M-0.53 0.83 C-0.4 22.85, -0.48 110.84, -0.24 133.27 M1.39 0.22 C1.43 22.87, -1.19 112.04, -1.31 134.28" stroke="#e03131" stroke-width="2" fill="none"></path></g></g><mask></mask><g stroke-linecap="round" transform="translate(1116.4775844379037 629.8344357260498) rotate(0 20.699056914194443 20.699056914194443)"><path d="M25.32 0.88 C29.46 1.54, 33.86 5.05, 36.54 8.44 C39.22 11.83, 41.45 16.96, 41.4 21.24 C41.35 25.51, 39.23 30.72, 36.25 34.07 C33.27 37.42, 28 40.57, 23.53 41.32 C19.05 42.06, 13.19 40.81, 9.4 38.52 C5.61 36.23, 2.16 31.86, 0.78 27.56 C-0.6 23.26, -0.62 16.98, 1.13 12.72 C2.88 8.47, 7.07 3.97, 11.26 2.01 C15.45 0.05, 23.6 1.08, 26.25 0.96 C28.91 0.84, 27.27 0.99, 27.21 1.31 M22.03 -0.62 C26.42 -0.57, 32.25 2.23, 35.53 5.39 C38.81 8.55, 41.21 13.99, 41.69 18.34 C42.17 22.69, 40.99 27.91, 38.43 31.49 C35.87 35.08, 30.75 38.45, 26.33 39.85 C21.92 41.24, 16.02 41.6, 11.94 39.88 C7.86 38.16, 3.73 33.65, 1.86 29.53 C-0.01 25.41, -0.39 19.31, 0.74 15.14 C1.86 10.97, 5.12 6.96, 8.6 4.51 C12.07 2.07, 19.39 1.2, 21.59 0.47 C23.8 -0.25, 21.69 -0.18, 21.85 0.17" stroke="none" stroke-width="0" fill="#1e1e1e"></path><path d="M17.63 0.44 C21.85 -0.36, 27.92 1.15, 31.67 3.49 C35.43 5.82, 38.84 10.3, 40.17 14.46 C41.49 18.63, 41.23 24.48, 39.63 28.49 C38.03 32.5, 34.47 36.41, 30.56 38.54 C26.64 40.66, 20.57 42, 16.15 41.22 C11.73 40.45, 6.73 37.47, 4.02 33.9 C1.32 30.32, -0.21 24.25, -0.06 19.78 C0.09 15.31, 1.73 10.44, 4.92 7.09 C8.12 3.73, 16.64 0.7, 19.1 -0.32 C21.56 -1.35, 19.66 0.58, 19.69 0.92 M18.89 -0.36 C23.19 -0.96, 29.03 1.01, 32.62 3.7 C36.21 6.38, 39.17 11.44, 40.44 15.77 C41.7 20.09, 42.09 25.8, 40.2 29.65 C38.31 33.49, 33.3 36.97, 29.09 38.85 C24.88 40.73, 19.26 41.85, 14.93 40.92 C10.59 39.99, 5.5 36.9, 3.1 33.27 C0.69 29.65, -0.08 23.77, 0.51 19.17 C1.11 14.57, 3.69 8.81, 6.67 5.65 C9.65 2.48, 16.41 1.13, 18.38 0.17 C20.35 -0.8, 18.41 -0.38, 18.49 -0.16" stroke="#1e1e1e" stroke-width="2" fill="none"></path></g><g stroke-linecap="round"><g transform="translate(1281.969199126558 530.3304609498725) rotate(0 64.33490662519904 64.33490662519904)"><path d="M-0.11 0.92 C21.24 22.41, 107.46 106.67, 128.97 127.81 M-1.63 0.36 C19.52 22.08, 106.52 107.52, 128.17 128.9" stroke="#e03131" stroke-width="2" fill="none"></path></g></g><mask></mask><g stroke-linecap="round"><g transform="translate(1417.3522200248028 530.3304609498725) rotate(0 -66.57264250781463 66.57264250781469)"><path d="M0.3 -0.86 C-21.83 21.03, -110.49 109.83, -132.9 132.25 M-1.01 1.31 C-23.26 23.24, -111.92 111.61, -133.71 133.31" stroke="#e03131" stroke-width="2" fill="none"></path></g></g><mask></mask><g stroke-linecap="round"><g transform="translate(1557.210712688279 529.2115930085649) rotate(0 64.3349066251991 64.33490662519901)"><path d="M0.61 -0.02 C22.01 21.32, 106.3 107.15, 127.83 128.68 M-0.53 -1.07 C21.3 20.41, 108.42 108.86, 130.11 130.23" stroke="#e03131" stroke-width="2" fill="none"></path></g></g><mask></mask><g stroke-linecap="round"><g transform="translate(1692.593733586524 529.2115930085649) rotate(0 -66.57264250781463 66.57264250781466)"><path d="M-0.83 0.01 C-22.94 22.29, -110.15 111.45, -132.01 133.65 M0.93 -1.03 C-21.29 20.89, -110.17 109.19, -132.37 131.8" stroke="#e03131" stroke-width="2" fill="none"></path></g></g><mask></mask><g transform="translate(1455.3266451621027 572.771227633546) rotate(0 37.650001525878906 41.39999999999998)"><text x="37.650001525878906" y="0" font-family="Helvetica, Segoe UI Emoji" font-size="36px" fill="#e03131" text-anchor="middle" style="white-space: pre;" direction="ltr" dominant-baseline="text-before-edge">adat</text><text x="37.650001525878906" y="41.4" font-family="Helvetica, Segoe UI Emoji" font-size="36px" fill="#e03131" text-anchor="middle" style="white-space: pre;" direction="ltr" dominant-baseline="text-before-edge">4</text></g><g transform="translate(1727.2115548999006 572.771227633546) rotate(0 37.650001525878906 41.39999999999998)"><text x="37.650001525878906" y="0" font-family="Helvetica, Segoe UI Emoji" font-size="36px" fill="#e03131" text-anchor="middle" style="white-space: pre;" direction="ltr" dominant-baseline="text-before-edge">adat</text><text x="37.650001525878906" y="41.4" font-family="Helvetica, Segoe UI Emoji" font-size="36px" fill="#e03131" text-anchor="middle" style="white-space: pre;" direction="ltr" dominant-baseline="text-before-edge">5</text></g><g stroke-linecap="round" transform="translate(488.3452838778798 869.1364636866983) rotate(0 20.699056914194443 20.699056914194443)"><path d="M20.45 -0.19 C24.52 -0.52, 30.27 1.92, 33.73 4.78 C37.19 7.64, 40.39 12.59, 41.21 17 C42.02 21.41, 40.93 27.31, 38.63 31.24 C36.34 35.17, 31.57 39.08, 27.45 40.59 C23.32 42.1, 18.07 41.98, 13.89 40.3 C9.71 38.62, 4.67 34.39, 2.35 30.51 C0.03 26.64, -0.8 21.27, -0.02 17.04 C0.77 12.8, 3.45 7.93, 7.06 5.11 C10.67 2.28, 19.12 0.94, 21.66 0.1 C24.19 -0.73, 22.37 -0.24, 22.27 0.1 M17.93 -0.09 C22.29 -0.66, 29.09 1.62, 32.82 4.19 C36.55 6.77, 39.1 11.09, 40.32 15.36 C41.53 19.63, 41.97 25.69, 40.09 29.81 C38.21 33.93, 33.11 38.29, 29.04 40.07 C24.96 41.86, 19.81 41.84, 15.66 40.52 C11.52 39.19, 6.78 35.64, 4.16 32.12 C1.54 28.6, -0.24 23.63, -0.05 19.39 C0.15 15.15, 2.28 9.77, 5.32 6.67 C8.37 3.57, 16.11 1.86, 18.23 0.78 C20.36 -0.31, 17.9 0.04, 18.07 0.17" stroke="none" stroke-width="0" fill="#1e1e1e"></path><path d="M21.78 -0.23 C25.97 -0.16, 31.24 2.93, 34.44 6.06 C37.63 9.2, 40.41 14.23, 40.96 18.59 C41.5 22.94, 40.1 28.56, 37.71 32.2 C35.33 35.84, 30.88 39.25, 26.64 40.42 C22.4 41.6, 16.39 41.03, 12.26 39.27 C8.14 37.5, 3.89 33.72, 1.89 29.83 C-0.11 25.93, -0.75 20.27, 0.28 15.9 C1.31 11.54, 4.34 6.25, 8.07 3.64 C11.79 1.04, 20.14 0.71, 22.64 0.27 C25.13 -0.17, 23.17 0.76, 23.04 1 M25.31 0.17 C29.54 0.74, 35.1 4, 37.69 7.52 C40.28 11.05, 41.11 16.76, 40.84 21.32 C40.58 25.88, 38.93 31.46, 36.1 34.88 C33.26 38.31, 28.26 41.22, 23.83 41.87 C19.39 42.52, 13.37 41.18, 9.48 38.77 C5.6 36.36, 1.84 31.81, 0.5 27.42 C-0.84 23.02, -0.18 16.52, 1.46 12.41 C3.1 8.3, 6.53 4.69, 10.33 2.77 C14.14 0.85, 21.87 1.32, 24.29 0.9 C26.7 0.48, 24.84 -0.02, 24.83 0.26" stroke="#1e1e1e" stroke-width="2" fill="none"></path></g><g stroke-linecap="round" transform="translate(869.6517355639758 548.8176808431001) rotate(89.99999999999994 66.01320853716078 279.1575513562986)"><path d="M0 0 C30.4 -0.64, 62.58 -0.12, 132.03 0 M0 0 C38.28 -0.19, 75.32 1.25, 132.03 0 M132.03 0 C133.83 195.47, 133.33 391.57, 132.03 558.32 M132.03 0 C133.76 145.94, 133.78 292.23, 132.03 558.32 M132.03 558.32 C90.48 556.2, 52.88 556.46, 0 558.32 M132.03 558.32 C85.48 557.77, 39.94 557.36, 0 558.32 M0 558.32 C-1.66 437.42, -1.96 315.17, 0 0 M0 558.32 C1.36 337.52, 1.34 116.2, 0 0" stroke="#e03131" stroke-width="2" fill="none"></path></g><g stroke-linecap="round" transform="translate(478.8910840996803 736.2969302874371) rotate(0 86.42857142857139 90)"><path d="M0 0 C47.75 0.4, 97.86 -0.33, 172.86 0 M0 0 C45.57 1.93, 91.98 1.61, 172.86 0 M172.86 0 C175.22 46.57, 173.81 94.9, 172.86 180 M172.86 0 C173.49 58.76, 173.28 118.36, 172.86 180 M172.86 180 C129.56 177.38, 85.07 178.3, 0 180 M172.86 180 C128.83 179.72, 83.87 180.81, 0 180 M0 180 C-0.75 117.67, 1.99 55.91, 0 0 M0 180 C-0.45 126.45, -0.64 73.23, 0 0" stroke="#e03131" stroke-width="2" fill="none"></path></g><g transform="translate(519.5696555282517 805.5969302874371) rotate(0 45.75 20.69999999999999)"><text x="45.75" y="0" font-family="Helvetica, Segoe UI Emoji" font-size="36px" fill="#e03131" text-anchor="middle" style="white-space: pre;" direction="ltr" dominant-baseline="text-before-edge">fejléc</text></g><g stroke-linecap="round"><g transform="translate(797.945939472422 762.4615043859369) rotate(0 0 68.81037839043034)"><path d="M-0.64 -0.42 C-0.5 22.41, 0.56 113.66, 0.63 136.83 M1.23 -1.69 C1.28 21.29, 0.4 114.88, 0.02 137.95" stroke="#e03131" stroke-width="2" fill="none"></path></g></g><mask></mask><g stroke-linecap="round"><g transform="translate(938.923300077206 759.1049005620134) rotate(0 0 69.36981236108426)"><path d="M0.63 -0.79 C0.71 22.56, -0.2 116.33, -0.21 139.68 M-0.49 1.41 C-0.54 24.47, -1.37 115.41, -1.26 138.06" stroke="#e03131" stroke-width="2" fill="none"></path></g></g><mask></mask><g stroke-linecap="round"><g transform="translate(1069.8308492102196 762.4615043859369) rotate(0 0 67.1320764784686)"><path d="M-0.21 0.94 C-0.21 23.55, 0.66 112.41, 0.61 134.83 M-1.77 0.39 C-1.94 22.71, -0.06 110.79, -0.02 133" stroke="#e03131" stroke-width="2" fill="none"></path></g></g><mask></mask><g stroke-linecap="round"><g transform="translate(1074.445575209796 763.1561636037638) rotate(0 64.3349066251991 64.33490662519904)"><path d="M-1.01 1.01 C20.36 22.19, 106.52 106.68, 128.1 128 M0.65 0.49 C21.83 21.75, 105.69 107.54, 126.86 129.19" stroke="#e03131" stroke-width="2" fill="none"></path></g></g><mask></mask><g stroke-linecap="round"><g transform="translate(1209.828596108041 763.1561636037638) rotate(0 -66.57264250781463 66.57264250781469)"><path d="M-0.57 -0.67 C-22.62 21.4, -111.13 111.25, -133.31 133.39 M1.33 1.6 C-20.8 23.8, -111.68 109.5, -134.34 131.39" stroke="#e03131" stroke-width="2" fill="none"></path></g></g><mask></mask><g stroke-linecap="round"><g transform="translate(933.4682146050116 760.9184277211483) rotate(0 64.3349066251991 64.33490662519898)"><path d="M0.4 -0.72 C21.85 20.96, 106.46 107.4, 127.98 129.09 M-0.85 1.52 C21.05 22.91, 108.66 106.19, 130.33 127.19" stroke="#e03131" stroke-width="2" fill="none"></path></g></g><mask></mask><g stroke-linecap="round"><g transform="translate(1068.8512355032565 760.9184277211483) rotate(0 -66.57264250781463 66.57264250781463)"><path d="M-0.69 0.42 C-22.81 22.86, -110.15 111.79, -132.32 133.91 M1.15 -0.41 C-21.09 21.75, -110.18 109.71, -132.83 132.19" stroke="#e03131" stroke-width="2" fill="none"></path></g></g><mask></mask><g stroke-linecap="round"><g transform="translate(802.5606654719977 765.3938994863794) rotate(0 64.3349066251991 64.33490662519898)"><path d="M0.19 -0.43 C21.32 20.87, 106.34 106.33, 127.62 127.89 M-1.18 -1.7 C20.25 19.72, 107.86 107.01, 129.79 129.02" stroke="#e03131" stroke-width="2" fill="none"></path></g></g><mask></mask><g stroke-linecap="round"><g transform="translate(937.9436863702426 765.3938994863794) rotate(0 -66.57264250781463 66.57264250781463)"><path d="M-1.05 -0.78 C-23.4 21.52, -111.95 111.16, -133.91 133.38 M0.61 1.42 C-21.38 23.38, -109.27 109.36, -131.61 131.38" stroke="#e03131" stroke-width="2" fill="none"></path></g></g><mask></mask><g transform="translate(688.3690505914353 805.5969302874372) rotate(0 37.650001525878906 41.39999999999998)"><text x="37.650001525878906" y="0" font-family="Helvetica, Segoe UI Emoji" font-size="36px" fill="#e03131" text-anchor="middle" style="white-space: pre;" direction="ltr" dominant-baseline="text-before-edge">adat</text><text x="37.650001525878906" y="41.4" font-family="Helvetica, Segoe UI Emoji" font-size="36px" fill="#e03131" text-anchor="middle" style="white-space: pre;" direction="ltr" dominant-baseline="text-before-edge">6</text></g><g stroke-linecap="round" transform="translate(366.22789554785265 316.6284331765864) rotate(0 231.73449723672942 70.35714285714283)"><path d="M0 0 C114.93 -0.19, 228.92 -0.15, 463.47 0 M0 0 C112.05 -1.15, 224.9 -1.73, 463.47 0 M463.47 0 C464.48 54.91, 464.67 106.72, 463.47 140.71 M463.47 0 C462.63 45.32, 462.01 89.43, 463.47 140.71 M463.47 140.71 C343.98 138.55, 223.43 138.76, 0 140.71 M463.47 140.71 C302.54 141.04, 141.87 141.08, 0 140.71 M0 140.71 C1.14 112.69, 3.06 84.48, 0 0 M0 140.71 C0.64 104.34, -0.13 66.72, 0 0" stroke="#1e1e1e" stroke-width="2" fill="none"></path></g><g stroke-linecap="round" transform="translate(414.9922602375239 351.56989730558274) rotate(0 29.65000044465694 29.65000044465694)"><path d="M33.72 1.03 C39.59 1.59, 46.73 6, 50.85 10.58 C54.98 15.17, 58.03 22.28, 58.47 28.54 C58.91 34.79, 57.27 43.16, 53.5 48.12 C49.73 53.09, 42.02 57.07, 35.87 58.33 C29.71 59.59, 22.32 58.7, 16.59 55.67 C10.85 52.64, 3.88 46.05, 1.47 40.14 C-0.94 34.23, -0.03 26.05, 2.14 20.19 C4.32 14.34, 8.61 8.32, 14.5 5.02 C20.38 1.71, 33.15 0.84, 37.45 0.34 C41.75 -0.16, 40.36 1.38, 40.27 2.01 M16.52 3.45 C21.61 0.25, 30.39 -1.28, 36.25 -0.04 C42.12 1.2, 48.09 5.54, 51.72 10.88 C55.34 16.23, 57.81 25.47, 57.99 32.02 C58.17 38.57, 56.76 45.76, 52.79 50.19 C48.82 54.61, 40.77 57.93, 34.15 58.57 C27.52 59.21, 18.76 57.42, 13.06 54.03 C7.35 50.65, 1.68 44.11, -0.08 38.29 C-1.84 32.47, -0.28 25, 2.49 19.12 C5.27 13.24, 14.55 5.36, 16.58 3.03 C18.61 0.7, 14.51 4.74, 14.69 5.16" stroke="none" stroke-width="0" fill="#1e1e1e"></path><path d="M31.44 0.5 C37.39 0.54, 44.61 3.95, 49.24 8.35 C53.87 12.75, 58.32 20.67, 59.24 26.89 C60.17 33.11, 58.34 40.53, 54.8 45.67 C51.25 50.8, 44.11 55.75, 37.97 57.7 C31.84 59.65, 23.79 59.87, 17.98 57.36 C12.16 54.85, 5.81 48.45, 3.08 42.63 C0.34 36.8, 0.08 28.66, 1.58 22.4 C3.07 16.14, 6.75 8.84, 12.02 5.04 C17.28 1.25, 29.53 0.42, 33.16 -0.38 C36.79 -1.19, 34.14 -0.47, 33.82 0.21 M40.96 1.42 C46.58 3.31, 52.59 9.88, 55.31 15.89 C58.04 21.9, 58.56 31.12, 57.3 37.49 C56.05 43.87, 52.53 50.58, 47.78 54.13 C43.03 57.69, 35.18 59.09, 28.79 58.81 C22.39 58.53, 14.06 56.87, 9.44 52.48 C4.81 48.08, 1.56 38.89, 1.04 32.46 C0.52 26.03, 3.19 19.15, 6.32 13.88 C9.45 8.6, 14.17 2.77, 19.82 0.81 C25.48 -1.15, 36.82 1.83, 40.23 2.14 C43.64 2.45, 40.46 2.35, 40.31 2.68" stroke="#1e1e1e" stroke-width="2" fill="none"></path></g><g stroke-linecap="round" transform="translate(566.9869616784358 351.56989730558274) rotate(0 29.65000044465694 29.65000044465694)"><path d="M26.08 -0.73 C32.22 -1.51, 41.96 2, 47.34 5.66 C52.72 9.33, 56.77 15.1, 58.37 21.26 C59.98 27.42, 59.6 36.81, 56.99 42.62 C54.37 48.44, 48.54 53.6, 42.7 56.14 C36.85 58.67, 28.3 59.52, 21.93 57.84 C15.55 56.16, 8.02 51.16, 4.45 46.06 C0.88 40.95, -0.21 33.43, 0.52 27.21 C1.24 20.98, 3.96 13.24, 8.79 8.72 C13.61 4.2, 25.65 1.49, 29.49 0.09 C33.33 -1.32, 31.85 -0.05, 31.84 0.27 M18.29 1.57 C23.89 -1.08, 34.41 -1.02, 40.36 1.11 C46.31 3.24, 51.04 8.71, 53.99 14.35 C56.94 19.99, 59.01 28.64, 58.08 34.97 C57.15 41.3, 53.15 48.46, 48.4 52.32 C43.65 56.17, 35.64 58.05, 29.6 58.1 C23.57 58.15, 16.87 56.19, 12.19 52.61 C7.52 49.04, 2.77 42.85, 1.56 36.66 C0.35 30.46, 1.99 21.03, 4.94 15.44 C7.88 9.84, 16.75 5.08, 19.25 3.09 C21.75 1.1, 19.84 3.23, 19.94 3.5" stroke="none" stroke-width="0" fill="#1e1e1e"></path><path d="M33.31 0.95 C39.27 1.33, 47.11 4.17, 51.28 8.82 C55.44 13.48, 57.87 22.39, 58.28 28.88 C58.7 35.37, 57.58 42.73, 53.75 47.79 C49.92 52.84, 41.76 57.93, 35.29 59.22 C28.81 60.51, 20.32 58.48, 14.91 55.53 C9.49 52.59, 5.2 47.24, 2.82 41.56 C0.44 35.89, -1.22 27.59, 0.62 21.48 C2.45 15.37, 7.1 8.15, 13.82 4.92 C20.55 1.7, 35.32 1.87, 40.96 2.13 C46.6 2.39, 47.95 6.06, 47.67 6.5 M28.49 -1.48 C34.4 -2.22, 43.6 1.93, 48.83 5.99 C54.05 10.05, 58.51 16.28, 59.84 22.88 C61.17 29.47, 59.89 39.93, 56.8 45.54 C53.71 51.14, 47.49 54.39, 41.31 56.52 C35.12 58.64, 25.77 60.12, 19.68 58.27 C13.59 56.42, 7.78 50.94, 4.77 45.39 C1.75 39.85, 0.87 31.36, 1.61 24.99 C2.36 18.63, 4.84 11.34, 9.24 7.2 C13.63 3.06, 24.56 1.47, 27.97 0.14 C31.39 -1.18, 29.31 -1.35, 29.71 -0.77" stroke="#1e1e1e" stroke-width="2" fill="none"></path></g><g stroke-linecap="round" transform="translate(739.4840887411251 357.5724579301615) rotate(0 27.971698532695257 27.971698532695257)"><path d="M17.39 2.8 C22.34 0.01, 29.27 -0.75, 35.03 0.97 C40.79 2.69, 48.65 8.16, 51.96 13.11 C55.27 18.06, 55.56 24.8, 54.88 30.68 C54.2 36.55, 52.19 44.21, 47.88 48.35 C43.57 52.49, 34.98 55, 29.02 55.52 C23.05 56.05, 16.87 54.98, 12.09 51.5 C7.3 48.02, 2.01 40.45, 0.31 34.64 C-1.39 28.84, -2.12 22.37, 1.89 16.69 C5.9 11.01, 19.61 3.38, 24.35 0.57 C29.09 -2.23, 30.5 -0.5, 30.34 -0.12 M25.35 0.22 C30.82 -0.9, 37.58 1.17, 42.69 4.6 C47.8 8.02, 54.36 14.92, 56.02 20.77 C57.67 26.63, 55.36 34.21, 52.63 39.72 C49.91 45.23, 44.76 51.38, 39.65 53.83 C34.55 56.28, 27.81 55.7, 22.01 54.45 C16.21 53.19, 8.43 50.97, 4.83 46.31 C1.22 41.65, 0.23 32.79, 0.4 26.48 C0.56 20.17, 1.75 12.95, 5.82 8.47 C9.89 3.98, 21.98 0.66, 24.83 -0.43 C27.68 -1.53, 23.18 1.55, 22.93 1.9" stroke="none" stroke-width="0" fill="#1e1e1e"></path><path d="M17.91 2.39 C23.19 -0.11, 31.99 -0.9, 37.72 1.01 C43.45 2.91, 49.24 8.42, 52.27 13.81 C55.31 19.21, 57.15 27.41, 55.92 33.38 C54.69 39.35, 49.62 45.95, 44.9 49.62 C40.18 53.29, 33.42 55.4, 27.62 55.38 C21.81 55.35, 14.76 53.11, 10.09 49.46 C5.42 45.82, 0.56 39.43, -0.42 33.52 C-1.4 27.61, -0.17 19.52, 4.23 14.01 C8.62 8.49, 21.1 2.45, 25.96 0.43 C30.81 -1.58, 33.38 1.65, 33.37 1.92 M28.8 -0.67 C34.84 -0.99, 43.31 2.15, 47.68 6.35 C52.05 10.54, 54.29 18.55, 55.02 24.49 C55.75 30.42, 55.28 36.73, 52.08 41.96 C48.87 47.18, 41.46 53.75, 35.79 55.85 C30.12 57.95, 23.43 57.09, 18.04 54.57 C12.65 52.05, 6.56 46.28, 3.46 40.74 C0.37 35.2, -2.01 26.92, -0.56 21.34 C0.89 15.75, 7.03 10.9, 12.16 7.23 C17.3 3.55, 27.36 0.25, 30.24 -0.69 C33.11 -1.63, 29.69 1.2, 29.42 1.58" stroke="#1e1e1e" stroke-width="2" fill="none"></path></g><g stroke-linecap="round"><g transform="translate(531.567745479714 313.1907276251793) rotate(0 0 72.07097854361797)"><path d="M-1.04 -0.93 C-0.81 23.21, 0.64 121.03, 0.7 145.26 M0.62 1.19 C0.8 24.99, -0.08 119.6, 0.11 143.73" stroke="#1e1e1e" stroke-width="2" fill="none"></path></g></g><mask></mask><g stroke-linecap="round"><g transform="translate(678.5925417086946 311.749308054307) rotate(0 0 74.23310789992647)"><path d="M-0.03 -1.05 C-0.04 23.87, 1.23 124.72, 1.16 149.55 M-1.5 1.02 C-1.67 25.62, 0.81 123.33, 0.82 147.99" stroke="#1e1e1e" stroke-width="2" fill="none"></path></g></g><mask></mask><g stroke-linecap="round"><g transform="translate(166.82672441895645 432.68559239649613) rotate(0 99.20058556444806 -7.929950059645961)"><path d="M0.47 0.32 C33.37 -2.08, 164.35 -12.96, 197.42 -15.49 M-0.74 -0.56 C32.52 -3.24, 166.44 -14.73, 199.61 -17.42" stroke="#1e1e1e" stroke-width="2" fill="none"></path></g><g transform="translate(166.82672441895645 432.68559239649613) rotate(0 99.20058556444806 -7.929950059645961)"><path d="M200.65 -16.59 L184.81 -10.11 L186.05 -21.99 L199.21 -17.18" stroke="none" stroke-width="0" fill="#1e1e1e" fill-rule="evenodd"></path><path d="M199.61 -17.42 C195.97 -16.33, 192.06 -12.25, 186.6 -9.97 M199.61 -17.42 C194.67 -15.4, 190.21 -11.66, 186.6 -9.97 M186.6 -9.97 C185.74 -13.77, 185.99 -13.95, 185.54 -22.61 M186.6 -9.97 C186.23 -13.68, 185.48 -16.96, 185.54 -22.61 M185.54 -22.61 C190.07 -20.55, 196.48 -18.24, 199.61 -17.42 M185.54 -22.61 C189.22 -21.7, 191.91 -20.21, 199.61 -17.42 M199.61 -17.42 C199.61 -17.42, 199.61 -17.42, 199.61 -17.42 M199.61 -17.42 C199.61 -17.42, 199.61 -17.42, 199.61 -17.42" stroke="#1e1e1e" stroke-width="2" fill="none"></path></g></g><mask></mask><g stroke-linecap="round" transform="translate(126.00966314259978 420.7780125186249) rotate(0 20.699056914194443 20.699056914194443)"><path d="M24.07 -0.27 C28.25 -0.06, 32.86 3.13, 35.76 6.47 C38.67 9.82, 41.26 15.36, 41.49 19.78 C41.73 24.21, 39.97 29.59, 37.18 33.03 C34.39 36.48, 29.13 39.5, 24.76 40.46 C20.39 41.43, 14.84 40.78, 10.98 38.83 C7.11 36.88, 3.24 32.9, 1.57 28.78 C-0.11 24.66, -0.45 18.37, 0.94 14.11 C2.32 9.85, 6.07 5.43, 9.89 3.2 C13.71 0.97, 21.45 1.19, 23.86 0.71 C26.28 0.24, 24.32 0.05, 24.38 0.35 M25.19 0.3 C29.45 0.76, 34.21 3.84, 36.91 7.32 C39.61 10.79, 41.55 16.66, 41.4 21.16 C41.24 25.65, 38.79 30.93, 36 34.3 C33.21 37.67, 28.93 40.63, 24.65 41.38 C20.37 42.12, 14.27 41.12, 10.3 38.78 C6.33 36.44, 2.38 31.65, 0.84 27.34 C-0.69 23.03, -0.5 17.11, 1.11 12.91 C2.72 8.71, 6.67 4.2, 10.51 2.15 C14.34 0.1, 21.69 0.93, 24.11 0.61 C26.53 0.28, 25.13 -0.18, 25.03 0.22" stroke="none" stroke-width="0" fill="#1e1e1e"></path><path d="M20.32 -0.46 C24.52 -0.75, 30.12 1.8, 33.55 4.74 C36.98 7.69, 40.11 12.79, 40.91 17.22 C41.71 21.65, 40.51 27.44, 38.33 31.33 C36.15 35.21, 31.93 39.06, 27.82 40.52 C23.72 41.98, 17.83 41.7, 13.69 40.1 C9.55 38.51, 5.24 34.76, 2.98 30.95 C0.72 27.14, -0.6 21.54, 0.14 17.25 C0.87 12.96, 3.81 8.13, 7.41 5.22 C11 2.31, 19.33 0.63, 21.73 -0.2 C24.13 -1.03, 21.81 -0.08, 21.78 0.25 M15.72 1.28 C19.68 0.04, 26 0.43, 29.89 2.22 C33.78 4, 37.19 7.88, 39.06 12.01 C40.93 16.15, 42.22 22.69, 41.12 27.05 C40.02 31.41, 36.27 35.84, 32.44 38.16 C28.61 40.48, 22.65 41.5, 18.15 40.96 C13.65 40.43, 8.45 38.04, 5.42 34.96 C2.39 31.88, 0.15 26.9, -0.01 22.49 C-0.17 18.09, 1.94 12.2, 4.48 8.54 C7.01 4.88, 13.26 1.8, 15.22 0.54 C17.17 -0.72, 16.12 0.6, 16.22 0.95" stroke="#1e1e1e" stroke-width="2" fill="none"></path></g></svg>